<svg width="80" height="80" viewBox="0 0 80 80" fill="none" xmlns="http://www.w3.org/2000/svg">
<circle cx="40" cy="40" r="40" fill="#FFD687" fill-opacity="0.94"/>
<path d="M27.2183 47.1652C27.2183 49.8522 28.6371 51.2584 31.3491 51.2584H44.4448C43.9803 50.5051 43.6538 49.6513 43.5031 48.7598H31.3366C30.2944 48.7598 29.7169 48.2199 29.7169 47.115V35.5637C29.7169 34.4588 30.2944 33.9189 31.3366 33.9189H48.651C49.6932 33.9189 50.2707 34.4588 50.2707 35.5637V38.9286C50.7102 38.8533 51.1245 38.8156 51.5389 38.8156C51.9532 38.8156 52.3675 38.8533 52.7819 38.9161V31.8848C52.7819 29.1979 51.3631 27.7916 48.6385 27.7916H31.3491C28.6371 27.7916 27.2183 29.1853 27.2183 31.8848V47.1652ZM37.5768 38.2506H38.3176C38.7696 38.2506 38.9203 38.1125 38.9203 37.673V36.9323C38.9203 36.4802 38.7696 36.3421 38.3176 36.3421H37.5768C37.1248 36.3421 36.9741 36.4802 36.9741 36.9323V37.673C36.9741 38.1125 37.1248 38.2506 37.5768 38.2506ZM41.6825 38.2506H42.4233C42.8628 38.2506 43.0135 38.1125 43.0135 37.673V36.9323C43.0135 36.4802 42.8628 36.3421 42.4233 36.3421H41.6825C41.2305 36.3421 41.0799 36.4802 41.0799 36.9323V37.673C41.0799 38.1125 41.2305 38.2506 41.6825 38.2506ZM45.7757 38.2506H46.5165C46.9685 38.2506 47.1192 38.1125 47.1192 37.673V36.9323C47.1192 36.4802 46.9685 36.3421 46.5165 36.3421H45.7757C45.3363 36.3421 45.1856 36.4802 45.1856 36.9323V37.673C45.1856 38.1125 45.3363 38.2506 45.7757 38.2506ZM33.4836 42.2936H34.2118C34.6639 42.2936 34.8145 42.1555 34.8145 41.7035V40.9627C34.8145 40.5232 34.6639 40.3851 34.2118 40.3851H33.4836C33.0316 40.3851 32.8809 40.5232 32.8809 40.9627V41.7035C32.8809 42.1555 33.0316 42.2936 33.4836 42.2936ZM37.5768 42.2936H38.3176C38.7696 42.2936 38.9203 42.1555 38.9203 41.7035V40.9627C38.9203 40.5232 38.7696 40.3851 38.3176 40.3851H37.5768C37.1248 40.3851 36.9741 40.5232 36.9741 40.9627V41.7035C36.9741 42.1555 37.1248 42.2936 37.5768 42.2936ZM41.6825 42.2936H42.4233C42.8628 42.2936 43.0135 42.1555 43.0135 41.7035V40.9627C43.0135 40.5232 42.8628 40.3851 42.4233 40.3851H41.6825C41.2305 40.3851 41.0799 40.5232 41.0799 40.9627V41.7035C41.0799 42.1555 41.2305 42.2936 41.6825 42.2936ZM51.5389 53.5436C55.0545 53.5436 58.0176 50.6055 58.0176 47.0648C58.0176 43.524 55.0921 40.5985 51.5389 40.5985C47.9981 40.5985 45.0726 43.524 45.0726 47.0648C45.0726 50.6181 47.9981 53.5436 51.5389 53.5436ZM47.4331 47.0648C47.4331 46.55 47.7847 46.211 48.2995 46.211H50.6725V43.8379C50.6725 43.3232 51.0241 42.9716 51.5389 42.9716C52.0662 42.9716 52.4052 43.3232 52.4052 43.8379V46.211H54.7783C55.293 46.211 55.6446 46.55 55.6446 47.0648C55.6446 47.5921 55.293 47.9311 54.7783 47.9311H52.4052V50.3167C52.4052 50.8315 52.0662 51.1705 51.5389 51.1705C51.0241 51.1705 50.6725 50.8315 50.6725 50.3167V47.9311H48.2995C47.7847 47.9311 47.4457 47.5921 47.4331 47.0648ZM33.4836 46.324H34.2118C34.6639 46.324 34.8145 46.1859 34.8145 45.7464V45.0056C34.8145 44.5536 34.6639 44.4155 34.2118 44.4155H33.4836C33.0316 44.4155 32.8809 44.5536 32.8809 45.0056V45.7464C32.8809 46.1859 33.0316 46.324 33.4836 46.324ZM37.5768 46.324H38.3176C38.7696 46.324 38.9203 46.1859 38.9203 45.7464V45.0056C38.9203 44.5536 38.7696 44.4155 38.3176 44.4155H37.5768C37.1248 44.4155 36.9741 44.5536 36.9741 45.0056V45.7464C36.9741 46.1859 37.1248 46.324 37.5768 46.324ZM41.6825 46.324H42.4233C42.8628 46.324 43.0135 46.1859 43.0135 45.7464V45.0056C43.0135 44.5536 42.8628 44.4155 42.4233 44.4155H41.6825C41.2305 44.4155 41.0799 44.5536 41.0799 45.0056V45.7464C41.0799 46.1859 41.2305 46.324 41.6825 46.324Z" fill="#F20606"/>
</svg>
