<svg width="60" height="60" viewBox="0 0 60 60" fill="none" xmlns="http://www.w3.org/2000/svg">
<path d="M29.9814 48.7333C40.6601 48.7333 49.4743 39.9191 49.4743 29.2592C49.4743 18.5993 40.6413 9.78516 29.9625 9.78516C19.3027 9.78516 10.5073 18.5993 10.5073 29.2592C10.5073 39.9191 19.3215 48.7333 29.9814 48.7333ZM25.3295 20.7464C27.4577 20.7464 29.0397 21.9706 29.9625 23.6279C30.8854 21.9706 32.5051 20.7464 34.5956 20.7464C37.8162 20.7464 40.2081 23.2136 40.2081 26.679C40.2081 32.0278 34.3508 36.6232 30.9984 38.7891C30.6782 38.9962 30.2827 39.2599 30.0002 39.2599C29.7365 39.2599 29.2845 38.9962 28.9267 38.7891C25.5555 36.6609 19.7358 32.0278 19.7358 26.679C19.7358 23.2136 22.1277 20.7464 25.3295 20.7464Z" fill="#1C1C1E"/>
</svg>
