<svg width="80" height="80" viewBox="0 0 80 80" fill="none" xmlns="http://www.w3.org/2000/svg">
<circle cx="40" cy="40" r="40" fill="#84FF9F"/>
<path d="M40.0002 48.5965C40.5527 48.5965 41.3186 46.4997 41.3186 43.1096V35.1995C43.4405 34.6219 44.9849 32.6758 44.9849 30.3781C44.9849 27.6158 42.775 25.3683 40.0002 25.3683C37.2379 25.3683 35.0281 27.6158 35.0281 30.3781C35.0281 32.6632 36.5599 34.6094 38.6818 35.1869V43.1096C38.6818 46.4871 39.4603 48.5965 40.0002 48.5965ZM38.594 30.6543C37.6899 30.6543 36.8864 29.8633 36.8864 28.9341C36.8864 28.0176 37.6899 27.2391 38.594 27.2391C39.5356 27.2391 40.3015 28.0176 40.3015 28.9341C40.3015 29.8633 39.5356 30.6543 38.594 30.6543ZM40.0002 53.5435C47.9857 53.5435 52.7695 50.8566 52.7695 47.7678C52.7695 44.3903 47.5965 42.2056 43.4656 42.0298V44.2773C46.2781 44.4029 49.9067 45.6961 49.9067 47.5167C49.9067 49.6763 45.7382 51.1705 40.0002 51.1705C34.2622 51.1705 30.1062 49.6889 30.1062 47.5167C30.1062 45.6961 33.7349 44.4029 36.5348 44.2773V42.0298C32.4039 42.2056 27.231 44.3903 27.231 47.7678C27.231 50.8566 32.0147 53.5435 40.0002 53.5435Z" fill="#4529F4"/>
</svg>
